<svg width="203" height="24" viewBox="0 0 203 24" fill="none" xmlns="http://www.w3.org/2000/svg">
<rect width="23.9604" height="23.9604" rx="1.71146" fill="url(#paint0_linear_10711_78869)"/>
<path d="M5.13428 10.5728L11.9799 5.53027V7.90995L5.13428 12.9525V10.5728Z" fill="white"/>
<path d="M18.8262 10.5728L11.9805 5.53027V7.90995L18.8262 12.9525V10.5728Z" fill="white"/>
<path d="M5.13428 16.0506L11.9799 11.0081V13.3877L5.13428 18.4302V16.0506Z" fill="white"/>
<path d="M18.8262 16.0506L11.9805 11.0081V13.3877L18.8262 18.4302V16.0506Z" fill="white"/>
<path d="M40.0411 22.8676C39.2333 22.8676 38.4871 22.7376 37.8025 22.4774C37.1179 22.2173 36.5292 21.8545 36.0363 21.3889C35.5434 20.9371 35.1737 20.4031 34.9273 19.787L37.0632 18.9039C37.2549 19.4242 37.604 19.8555 38.1106 20.1978C38.6309 20.5401 39.2675 20.7112 40.0206 20.7112C40.6093 20.7112 41.1365 20.5948 41.602 20.3621C42.0675 20.143 42.4372 19.8144 42.711 19.3763C42.9848 18.9518 43.1217 18.4384 43.1217 17.836V15.3304L43.5325 15.8027C43.1491 16.5147 42.6152 17.0555 41.9306 17.4252C41.2597 17.7949 40.4998 17.9797 39.6509 17.9797C38.624 17.9797 37.6998 17.7401 36.8783 17.2609C36.0568 16.7817 35.4065 16.1245 34.9273 15.2893C34.4618 14.4541 34.229 13.5162 34.229 12.4757C34.229 11.4214 34.4618 10.4835 34.9273 9.66202C35.4065 8.84052 36.05 8.19016 36.8578 7.71096C37.6656 7.23175 38.5898 6.99214 39.6304 6.99214C40.4793 6.99214 41.2323 7.17698 41.8895 7.54666C42.5604 7.90264 43.1081 8.42292 43.5325 9.10751L43.2244 9.68256V7.23859H45.4219V17.836C45.4219 18.7944 45.1892 19.6501 44.7237 20.4031C44.2718 21.1699 43.642 21.7723 42.8342 22.2104C42.0264 22.6486 41.0954 22.8676 40.0411 22.8676ZM39.9179 15.8233C40.534 15.8233 41.0817 15.6795 41.5609 15.392C42.0401 15.0908 42.4166 14.6937 42.6905 14.2008C42.978 13.6942 43.1217 13.126 43.1217 12.4962C43.1217 11.8664 42.978 11.2982 42.6905 10.7916C42.4029 10.285 42.0196 9.88793 41.5404 9.60041C41.0611 9.29919 40.5203 9.14858 39.9179 9.14858C39.2881 9.14858 38.7267 9.29919 38.2338 9.60041C37.7409 9.88793 37.3507 10.285 37.0632 10.7916C36.7893 11.2845 36.6524 11.8527 36.6524 12.4962C36.6524 13.1123 36.7893 13.6737 37.0632 14.1803C37.3507 14.6869 37.7409 15.0908 38.2338 15.392C38.7267 15.6795 39.2881 15.8233 39.9179 15.8233Z" fill="black"/>
<path d="M48.1385 18.3494V2.80249H50.4593V18.3494H48.1385Z" fill="black"/>
<path d="M57.1364 18.5958C56.3012 18.5958 55.5687 18.411 54.9388 18.0413C54.309 17.658 53.8161 17.1308 53.4601 16.4599C53.1178 15.7754 52.9467 14.9881 52.9467 14.0981V7.23859H55.2674V13.8927C55.2674 14.3993 55.3701 14.8443 55.5755 15.2277C55.7809 15.6111 56.0684 15.9123 56.4381 16.1313C56.8078 16.3367 57.2322 16.4394 57.7114 16.4394C58.2043 16.4394 58.6356 16.3299 59.0053 16.1108C59.3749 15.8917 59.6625 15.5837 59.8678 15.1866C60.0869 14.7896 60.1964 14.324 60.1964 13.7901V7.23859H62.4966V18.3494H60.2991V16.1724L60.5456 16.4599C60.2854 17.1445 59.8542 17.6716 59.2517 18.0413C58.6493 18.411 57.9442 18.5958 57.1364 18.5958Z" fill="black"/>
<path d="M70.4228 18.5958C69.3138 18.5958 68.328 18.3425 67.4654 17.836C66.6166 17.3157 65.9525 16.6174 65.4733 15.7411C64.9941 14.8512 64.7545 13.8585 64.7545 12.7632C64.7545 11.6405 64.9941 10.6478 65.4733 9.78524C65.9662 8.92267 66.6234 8.24493 67.4449 7.75203C68.2664 7.24544 69.1974 6.99214 70.238 6.99214C71.0732 6.99214 71.8194 7.13591 72.4766 7.42343C73.1338 7.71096 73.6883 8.10801 74.1401 8.61461C74.592 9.10751 74.9342 9.67571 75.167 10.3192C75.4135 10.9627 75.5367 11.6473 75.5367 12.373C75.5367 12.551 75.5298 12.7358 75.5161 12.9275C75.5025 13.1192 75.4751 13.2972 75.434 13.4615H66.5823V11.6131H74.1196L73.0106 12.4551C73.1475 11.7842 73.0996 11.1886 72.8668 10.6684C72.6477 10.1344 72.3054 9.71679 71.8399 9.41557C71.3881 9.10066 70.8541 8.94321 70.238 8.94321C69.6219 8.94321 69.0742 9.10066 68.595 9.41557C68.1158 9.71679 67.7461 10.1549 67.486 10.73C67.2258 11.2913 67.1231 11.9759 67.1779 12.7837C67.1095 13.5368 67.2121 14.194 67.486 14.7553C67.7735 15.3167 68.1706 15.7548 68.6772 16.0697C69.1974 16.3846 69.7862 16.5421 70.4434 16.5421C71.1143 16.5421 71.6825 16.3915 72.148 16.0903C72.6272 15.789 73.0037 15.3988 73.2776 14.9196L75.167 15.8438C74.9479 16.3641 74.6056 16.8365 74.1401 17.2609C73.6883 17.6716 73.1406 18.0002 72.4971 18.2467C71.8673 18.4795 71.1759 18.5958 70.4228 18.5958Z" fill="black"/>
<path d="M81.9091 18.5958C80.7727 18.5958 79.7732 18.3152 78.9106 17.7538C78.0617 17.1924 77.4661 16.4394 77.1238 15.4947L78.9106 14.6526C79.2118 15.2825 79.6226 15.7822 80.1429 16.1519C80.6768 16.5215 81.2656 16.7064 81.9091 16.7064C82.4568 16.7064 82.9017 16.5832 83.244 16.3367C83.5863 16.0903 83.7575 15.7548 83.7575 15.3304C83.7575 15.0565 83.6822 14.8375 83.5315 14.6732C83.3809 14.4952 83.1893 14.3514 82.9565 14.2419C82.7374 14.1324 82.5115 14.0502 82.2788 13.9954L80.5331 13.5025C79.5747 13.2287 78.8558 12.818 78.3766 12.2703C77.9111 11.7089 77.6784 11.0586 77.6784 10.3192C77.6784 9.64833 77.8495 9.06643 78.1918 8.57353C78.5341 8.06694 79.0065 7.67673 79.6089 7.40289C80.2113 7.12906 80.8891 6.99214 81.6421 6.99214C82.6553 6.99214 83.5589 7.24544 84.3531 7.75203C85.1472 8.24493 85.7085 8.93636 86.0371 9.82632L84.2504 10.6684C84.0313 10.1344 83.6822 9.70994 83.2029 9.39503C82.7374 9.08012 82.2103 8.92267 81.6216 8.92267C81.115 8.92267 80.7111 9.04589 80.4098 9.29234C80.1086 9.5251 79.958 9.83317 79.958 10.2165C79.958 10.4767 80.0265 10.6957 80.1634 10.8737C80.3003 11.038 80.4783 11.1749 80.6974 11.2845C80.9164 11.3803 81.1424 11.4625 81.3751 11.5309L83.1824 12.0649C84.0998 12.3251 84.8049 12.7358 85.2978 13.2972C85.7907 13.8448 86.0371 14.502 86.0371 15.2688C86.0371 15.926 85.8591 16.5079 85.5032 17.0144C85.1609 17.5073 84.6816 17.8976 84.0655 18.1851C83.4494 18.4589 82.7306 18.5958 81.9091 18.5958Z" fill="black"/>
<path d="M93.1168 18.4726C91.953 18.4726 91.0493 18.144 90.4058 17.4868C89.7623 16.8296 89.4406 15.9054 89.4406 14.7142V9.33342H87.4895V7.23859H87.7976C88.3179 7.23859 88.7218 7.08798 89.0093 6.78677C89.2968 6.48555 89.4406 6.0748 89.4406 5.55452V4.69194H91.7613V7.23859H94.2874V9.33342H91.7613V14.6116C91.7613 14.9949 91.8229 15.3235 91.9462 15.5974C92.0694 15.8575 92.2679 16.0629 92.5417 16.2135C92.8156 16.3504 93.1716 16.4189 93.6097 16.4189C93.7192 16.4189 93.8425 16.412 93.9794 16.3983C94.1163 16.3846 94.2464 16.3709 94.3696 16.3572V18.3494C94.1779 18.3768 93.9657 18.4042 93.7329 18.4315C93.5002 18.4589 93.2948 18.4726 93.1168 18.4726Z" fill="black"/>
<path d="M99.8611 18.5958C99.1081 18.5958 98.444 18.4658 97.869 18.2056C97.3076 17.9318 96.8695 17.5621 96.5546 17.0966C96.2397 16.6174 96.0822 16.056 96.0822 15.4125C96.0822 14.8101 96.2123 14.2693 96.4724 13.7901C96.7463 13.3109 97.1639 12.9069 97.7252 12.5783C98.2866 12.2497 98.9917 12.017 99.8406 11.8801L103.702 11.2434V13.0712L100.292 13.6668C99.6763 13.7764 99.2245 13.9749 98.9369 14.2624C98.6494 14.5363 98.5056 14.8922 98.5056 15.3304C98.5056 15.7548 98.6631 16.104 98.978 16.3778C99.3066 16.6379 99.7242 16.768 100.231 16.768C100.861 16.768 101.408 16.6311 101.874 16.3572C102.353 16.0834 102.723 15.7206 102.983 15.2688C103.243 14.8032 103.373 14.2898 103.373 13.7284V10.8737C103.373 10.3261 103.168 9.88109 102.757 9.53879C102.36 9.18281 101.826 9.00482 101.155 9.00482C100.539 9.00482 99.998 9.16912 99.5325 9.49772C99.0807 9.81263 98.7452 10.2234 98.5262 10.73L96.5957 9.76471C96.801 9.21704 97.1365 8.73783 97.602 8.32708C98.0675 7.90264 98.6083 7.57404 99.2245 7.34128C99.8543 7.10852 100.518 6.99214 101.217 6.99214C102.093 6.99214 102.866 7.15644 103.537 7.48504C104.222 7.81364 104.749 8.27232 105.119 8.86106C105.502 9.43611 105.694 10.107 105.694 10.8737V18.3494H103.476V16.3367L103.948 16.3983C103.688 16.8501 103.352 17.2404 102.942 17.569C102.545 17.8976 102.086 18.1509 101.566 18.3289C101.059 18.5068 100.491 18.5958 99.8611 18.5958Z" fill="black"/>
<path d="M113.685 18.5958C112.576 18.5958 111.591 18.3425 110.728 17.836C109.879 17.3157 109.201 16.6174 108.695 15.7411C108.202 14.8649 107.955 13.8722 107.955 12.7632C107.955 11.6679 108.202 10.682 108.695 9.80578C109.188 8.92951 109.865 8.24493 110.728 7.75203C111.591 7.24544 112.576 6.99214 113.685 6.99214C114.438 6.99214 115.144 7.12906 115.801 7.40289C116.458 7.66304 117.026 8.02586 117.505 8.49138C117.998 8.9569 118.361 9.49772 118.594 10.1138L116.561 11.0586C116.328 10.4835 115.951 10.0248 115.431 9.68256C114.925 9.32657 114.343 9.14858 113.685 9.14858C113.056 9.14858 112.487 9.30604 111.981 9.62094C111.488 9.92216 111.098 10.3534 110.81 10.9148C110.523 11.4625 110.379 12.0854 110.379 12.7837C110.379 13.482 110.523 14.1118 110.81 14.6732C111.098 15.2208 111.488 15.6521 111.981 15.967C112.487 16.2819 113.056 16.4394 113.685 16.4394C114.356 16.4394 114.938 16.2683 115.431 15.926C115.938 15.57 116.314 15.0976 116.561 14.5089L118.594 15.4741C118.375 16.0629 118.019 16.5969 117.526 17.0761C117.047 17.5416 116.479 17.9113 115.821 18.1851C115.164 18.4589 114.452 18.5958 113.685 18.5958Z" fill="black"/>
<path d="M120.862 18.3494V2.80249H123.183V13.215L122.279 12.9891L127.845 7.23859H130.741L126.551 11.6952L130.926 18.3494H128.256L124.354 12.4551L125.73 12.2703L122.444 15.7617L123.183 14.2213V18.3494H120.862Z" fill="black"/>
<path d="M132.864 13.8106V11.7568H141.079V13.8106H132.864Z" fill="black"/>
<path d="M148.111 18.5958C147.276 18.5958 146.543 18.411 145.914 18.0413C145.284 17.658 144.791 17.1308 144.435 16.4599C144.093 15.7754 143.921 14.9881 143.921 14.0981V7.23859H146.242V13.8927C146.242 14.3993 146.345 14.8443 146.55 15.2277C146.756 15.6111 147.043 15.9123 147.413 16.1313C147.783 16.3367 148.207 16.4394 148.686 16.4394C149.179 16.4394 149.61 16.3299 149.98 16.1108C150.35 15.8917 150.637 15.5837 150.843 15.1866C151.062 14.7896 151.171 14.324 151.171 13.7901V7.23859H153.471V18.3494H151.274V16.1724L151.52 16.4599C151.26 17.1445 150.829 17.6716 150.226 18.0413C149.624 18.411 148.919 18.5958 148.111 18.5958Z" fill="black"/>
<path d="M156.181 18.3494V7.23859H158.502V18.3494H156.181ZM156.181 5.71882V3.04894H158.502V5.71882H156.181Z" fill="black"/>
<rect x="168.771" y="2.41919" width="34.2292" height="19.1231" rx="9.56154" fill="black"/>
<path d="M177.328 18.1195V9.36052H178.539V10.3932H178.642C178.714 10.2605 178.818 10.107 178.953 9.93284C179.089 9.75866 179.277 9.60659 179.517 9.47665C179.758 9.34393 180.076 9.27758 180.471 9.27758C180.985 9.27758 181.444 9.40753 181.848 9.66742C182.252 9.92731 182.568 10.3019 182.798 10.7913C183.03 11.2807 183.146 11.8696 183.146 12.558C183.146 13.2465 183.031 13.8368 182.802 14.3289C182.573 14.8183 182.257 15.1957 181.856 15.4611C181.456 15.7237 180.998 15.8551 180.484 15.8551C180.097 15.8551 179.78 15.7901 179.534 15.6602C179.291 15.5302 179.1 15.3781 178.962 15.204C178.823 15.0298 178.717 14.8749 178.642 14.7395H178.568V18.1195H177.328ZM178.543 12.5456C178.543 12.9935 178.608 13.3861 178.738 13.7234C178.868 14.0607 179.056 14.3247 179.302 14.5155C179.548 14.7035 179.849 14.7975 180.206 14.7975C180.576 14.7975 180.886 14.6994 181.135 14.5031C181.384 14.304 181.572 14.0344 181.699 13.6944C181.829 13.3543 181.894 12.9714 181.894 12.5456C181.894 12.1253 181.83 11.7479 181.703 11.4134C181.579 11.0789 181.391 10.8148 181.139 10.6213C180.89 10.4277 180.579 10.331 180.206 10.331C179.846 10.331 179.542 10.4236 179.293 10.6088C179.047 10.7941 178.861 11.0526 178.734 11.3844C178.606 11.7161 178.543 12.1032 178.543 12.5456Z" fill="#FAFAFA"/>
<path d="M184.536 15.7307V12.5456V9.36052H185.734V10.3724H185.8C185.917 10.0296 186.121 9.76004 186.414 9.56374C186.71 9.36467 187.045 9.26514 187.418 9.26514C187.495 9.26514 187.587 9.2679 187.692 9.27343C187.799 9.27896 187.884 9.28587 187.945 9.29417V10.4803C187.895 10.4664 187.806 10.4512 187.679 10.4347C187.552 10.4153 187.425 10.4056 187.298 10.4056C187.005 10.4056 186.743 10.4678 186.514 10.5922C186.287 10.7139 186.107 10.8839 185.975 11.1024C185.842 11.318 185.776 11.5641 185.776 11.8406V15.7307H184.536Z" fill="#FAFAFA"/>
<path d="M191.473 15.8592C190.876 15.8592 190.354 15.7224 189.909 15.4486C189.464 15.1749 189.119 14.792 188.872 14.2999C188.626 13.8077 188.503 13.2326 188.503 12.5746C188.503 11.9138 188.626 11.336 188.872 10.8411C189.119 10.3462 189.464 9.96187 189.909 9.68815C190.354 9.41444 190.876 9.27758 191.473 9.27758C192.07 9.27758 192.591 9.41444 193.036 9.68815C193.481 9.96187 193.827 10.3462 194.073 10.8411C194.319 11.336 194.442 11.9138 194.442 12.5746C194.442 13.2326 194.319 13.8077 194.073 14.2999C193.827 14.792 193.481 15.1749 193.036 15.4486C192.591 15.7224 192.07 15.8592 191.473 15.8592ZM191.477 14.8183C191.864 14.8183 192.185 14.716 192.439 14.5114C192.693 14.3068 192.881 14.0344 193.003 13.6944C193.128 13.3543 193.19 12.9797 193.19 12.5705C193.19 12.164 193.128 11.7908 193.003 11.4507C192.881 11.1079 192.693 10.8328 192.439 10.6254C192.185 10.4181 191.864 10.3144 191.477 10.3144C191.087 10.3144 190.764 10.4181 190.507 10.6254C190.252 10.8328 190.063 11.1079 189.938 11.4507C189.817 11.7908 189.756 12.164 189.756 12.5705C189.756 12.9797 189.817 13.3543 189.938 13.6944C190.063 14.0344 190.252 14.3068 190.507 14.5114C190.764 14.716 191.087 14.8183 191.477 14.8183Z" fill="#FAFAFA"/>
<defs>
<linearGradient id="paint0_linear_10711_78869" x1="11.9802" y1="0" x2="27.2726" y2="25.3699" gradientUnits="userSpaceOnUse">
<stop stop-color="#5695DB"/>
<stop offset="1" stop-color="#4A25CF"/>
</linearGradient>
</defs>
</svg>
