<svg width="198" height="24" viewBox="0 0 198 24" fill="none" xmlns="http://www.w3.org/2000/svg">
<rect width="23.3703" height="23.3703" rx="1.66931" fill="url(#paint0_linear_10711_71959)"/>
<path d="M5.00781 10.3126L11.6848 5.39429V7.71535L5.00781 12.6337V10.3126Z" fill="white"/>
<path d="M18.3623 10.3126L11.6853 5.39429V7.71535L18.3623 12.6337V10.3126Z" fill="white"/>
<path d="M5.00781 15.6549L11.6848 10.7366V13.0576L5.00781 17.976V15.6549Z" fill="white"/>
<path d="M18.3623 15.6549L11.6853 10.7366V13.0576L18.3623 17.976V15.6549Z" fill="white"/>
<path d="M39.0552 22.3048C38.2673 22.3048 37.5395 22.178 36.8717 21.9242C36.204 21.6705 35.6298 21.3166 35.149 20.8625C34.6683 20.4218 34.3077 19.901 34.0673 19.3001L36.1506 18.4387C36.3376 18.9462 36.6781 19.3668 37.1722 19.7007C37.6797 20.0346 38.3007 20.2015 39.0352 20.2015C39.6094 20.2015 40.1235 20.088 40.5776 19.861C41.0316 19.6473 41.3922 19.3268 41.6593 18.8994C41.9264 18.4855 42.0599 17.9847 42.0599 17.3971V14.9532L42.4606 15.4139C42.0866 16.1084 41.5658 16.6359 40.8981 16.9964C40.2437 17.357 39.5026 17.5373 38.6746 17.5373C37.673 17.5373 36.7716 17.3036 35.9703 16.8362C35.169 16.3688 34.5347 15.7278 34.0673 14.9131C33.6133 14.0985 33.3862 13.1837 33.3862 12.1688C33.3862 11.1405 33.6133 10.2257 34.0673 9.42446C34.5347 8.6232 35.1624 7.98886 35.9503 7.52146C36.7382 7.05405 37.6396 6.82035 38.6546 6.82035C39.4825 6.82035 40.217 7.00063 40.858 7.3612C41.5124 7.70842 42.0466 8.21589 42.4606 8.88361L42.1601 9.44449V7.06073H44.3035V17.3971C44.3035 18.3319 44.0765 19.1665 43.6224 19.901C43.1817 20.6489 42.5674 21.2365 41.7795 21.6638C40.9916 22.0912 40.0835 22.3048 39.0552 22.3048ZM38.935 15.434C39.536 15.434 40.0701 15.2937 40.5375 15.0133C41.0049 14.7195 41.3722 14.3322 41.6393 13.8515C41.9197 13.3573 42.0599 12.8031 42.0599 12.1888C42.0599 11.5745 41.9197 11.0203 41.6393 10.5262C41.3588 10.0321 40.9849 9.64481 40.5175 9.36437C40.0501 9.07057 39.5226 8.92367 38.935 8.92367C38.3207 8.92367 37.7732 9.07057 37.2924 9.36437C36.8116 9.64481 36.431 10.0321 36.1506 10.5262C35.8835 11.007 35.75 11.5612 35.75 12.1888C35.75 12.7898 35.8835 13.3373 36.1506 13.8314C36.431 14.3255 36.8116 14.7195 37.2924 15.0133C37.7732 15.2937 38.3207 15.434 38.935 15.434Z" fill="white"/>
<path d="M46.9531 17.8979V2.73389H49.2167V17.8979H46.9531Z" fill="white"/>
<path d="M55.7294 18.1382C54.9147 18.1382 54.2003 17.958 53.586 17.5974C52.9717 17.2235 52.4909 16.7093 52.1437 16.0549C51.8098 15.3872 51.6429 14.6193 51.6429 13.7513V7.06073H53.9065V13.551C53.9065 14.0451 54.0066 14.4791 54.207 14.853C54.4073 15.227 54.6877 15.5208 55.0483 15.7344C55.4089 15.9348 55.8228 16.0349 56.2902 16.0349C56.771 16.0349 57.1917 15.9281 57.5522 15.7144C57.9128 15.5007 58.1933 15.2003 58.3936 14.813C58.6072 14.4257 58.7141 13.9717 58.7141 13.4508V7.06073H60.9576V17.8979H58.8142V15.7745L59.0546 16.0549C58.8009 16.7227 58.3802 17.2368 57.7926 17.5974C57.205 17.958 56.5173 18.1382 55.7294 18.1382Z" fill="white"/>
<path d="M68.6886 18.1382C67.6069 18.1382 66.6454 17.8912 65.804 17.3971C64.9761 16.8896 64.3284 16.2085 63.861 15.3538C63.3936 14.4858 63.1599 13.5176 63.1599 12.4492C63.1599 11.3542 63.3936 10.386 63.861 9.54465C64.3417 8.70332 64.9827 8.04228 65.784 7.56152C66.5853 7.0674 67.4934 6.82035 68.5083 6.82035C69.3229 6.82035 70.0507 6.96057 70.6918 7.24101C71.3328 7.52145 71.8736 7.90873 72.3143 8.40285C72.755 8.88361 73.0889 9.43782 73.3159 10.0655C73.5563 10.6931 73.6765 11.3609 73.6765 12.0686C73.6765 12.2423 73.6698 12.4225 73.6564 12.6095C73.6431 12.7965 73.6164 12.9701 73.5763 13.1303H64.9427V11.3275H72.2943L71.2126 12.1488C71.3461 11.4944 71.2994 10.9135 71.0724 10.406C70.8587 9.88519 70.5248 9.47788 70.0708 9.18408C69.6301 8.87693 69.1093 8.72335 68.5083 8.72335C67.9074 8.72335 67.3732 8.87693 66.9058 9.18408C66.4384 9.47788 66.0778 9.90522 65.8241 10.4661C65.5703 11.0136 65.4702 11.6814 65.5236 12.4693C65.4568 13.2038 65.557 13.8448 65.8241 14.3923C66.1045 14.9398 66.4918 15.3672 66.9859 15.6743C67.4934 15.9815 68.0676 16.1351 68.7086 16.1351C69.363 16.1351 69.9172 15.9882 70.3713 15.6944C70.8387 15.4006 71.2059 15.02 71.473 14.5526L73.3159 15.454C73.1022 15.9615 72.7684 16.4222 72.3143 16.8362C71.8736 17.2368 71.3395 17.5573 70.7118 17.7977C70.0975 18.0247 69.4231 18.1382 68.6886 18.1382Z" fill="white"/>
<path d="M79.8919 18.1382C78.7835 18.1382 77.8086 17.8645 76.9673 17.3169C76.1393 16.7694 75.5584 16.0349 75.2246 15.1135L76.9673 14.2922C77.2611 14.9065 77.6617 15.3939 78.1692 15.7545C78.69 16.115 79.2643 16.2953 79.8919 16.2953C80.4261 16.2953 80.8601 16.1751 81.194 15.9348C81.5278 15.6944 81.6948 15.3672 81.6948 14.9532C81.6948 14.6861 81.6213 14.4724 81.4744 14.3122C81.3275 14.1386 81.1406 13.9984 80.9135 13.8915C80.6999 13.7847 80.4795 13.7046 80.2525 13.6511L78.5498 13.1704C77.615 12.9033 76.9139 12.5027 76.4465 11.9685C75.9924 11.421 75.7654 10.7866 75.7654 10.0655C75.7654 9.41111 75.9323 8.84354 76.2662 8.36279C76.6001 7.86867 77.0608 7.48807 77.6484 7.22098C78.236 6.95389 78.897 6.82035 79.6315 6.82035C80.6197 6.82035 81.5011 7.0674 82.2757 7.56152C83.0503 8.04228 83.5978 8.71668 83.9183 9.58472L82.1755 10.406C81.9619 9.88519 81.6213 9.4712 81.1539 9.16405C80.6999 8.8569 80.1857 8.70332 79.6115 8.70332C79.1174 8.70332 78.7234 8.82351 78.4296 9.06389C78.1358 9.29092 77.9889 9.59139 77.9889 9.96532C77.9889 10.2191 78.0557 10.4327 78.1892 10.6063C78.3228 10.7666 78.4964 10.9001 78.7101 11.007C78.9237 11.1004 79.1441 11.1806 79.3711 11.2473L81.1339 11.7682C82.0286 12.0219 82.7164 12.4225 83.1972 12.9701C83.6779 13.5042 83.9183 14.1453 83.9183 14.8931C83.9183 15.5341 83.7447 16.1017 83.3975 16.5958C83.0636 17.0766 82.5962 17.4572 81.9953 17.7376C81.3943 18.0047 80.6932 18.1382 79.8919 18.1382Z" fill="white"/>
<path d="M90.8236 18.018C89.6885 18.018 88.8071 17.6975 88.1794 17.0565C87.5517 16.4155 87.2379 15.5141 87.2379 14.3523V9.10396H85.3349V7.06073H85.6354C86.1429 7.06073 86.5368 6.91383 86.8173 6.62003C87.0977 6.32623 87.2379 5.9256 87.2379 5.41813V4.5768H89.5015V7.06073H91.9654V9.10396H89.5015V14.2521C89.5015 14.626 89.5616 14.9465 89.6818 15.2136C89.802 15.4673 89.9956 15.6677 90.2627 15.8146C90.5298 15.9481 90.877 16.0149 91.3043 16.0149C91.4112 16.0149 91.5314 16.0082 91.6649 15.9948C91.7985 15.9815 91.9253 15.9681 92.0455 15.9548V17.8979C91.8586 17.9246 91.6516 17.9513 91.4245 17.978C91.1975 18.0047 90.9972 18.018 90.8236 18.018Z" fill="white"/>
<path d="M97.4018 18.1382C96.6673 18.1382 96.0196 18.0114 95.4587 17.7576C94.9112 17.4905 94.4839 17.13 94.1767 16.6759C93.8695 16.2085 93.716 15.661 93.716 15.0333C93.716 14.4457 93.8428 13.9182 94.0966 13.4508C94.3637 12.9834 94.771 12.5895 95.3185 12.269C95.866 11.9485 96.5538 11.7214 97.3818 11.5879L101.148 10.9669V12.7497L97.8225 13.3306C97.2215 13.4375 96.7808 13.6311 96.5004 13.9116C96.2199 14.1786 96.0797 14.5259 96.0797 14.9532C96.0797 15.3672 96.2333 15.7077 96.5404 15.9748C96.8609 16.2286 97.2682 16.3554 97.7624 16.3554C98.3767 16.3554 98.9108 16.2219 99.3649 15.9548C99.8323 15.6877 100.193 15.3338 100.447 14.8931C100.7 14.4391 100.827 13.9383 100.827 13.3907V10.6063C100.827 10.0722 100.627 9.63813 100.226 9.30427C99.839 8.95706 99.3182 8.78345 98.6638 8.78345C98.0628 8.78345 97.5353 8.9437 97.0813 9.26421C96.6406 9.57136 96.3134 9.972 96.0997 10.4661L94.2168 9.52462C94.4171 8.99044 94.7443 8.52304 95.1983 8.1224C95.6524 7.70842 96.1799 7.38791 96.7808 7.16089C97.3951 6.93386 98.0428 6.82035 98.7239 6.82035C99.5786 6.82035 100.333 6.9806 100.987 7.30111C101.655 7.62161 102.169 8.06899 102.53 8.64323C102.904 9.20411 103.091 9.85848 103.091 10.6063V17.8979H100.927V15.9348L101.388 15.9948C101.134 16.4355 100.807 16.8161 100.407 17.1367C100.019 17.4572 99.5719 17.7042 99.0644 17.8778C98.5703 18.0514 98.0161 18.1382 97.4018 18.1382Z" fill="white"/>
<path d="M110.886 18.1382C109.804 18.1382 108.842 17.8912 108.001 17.3971C107.173 16.8896 106.512 16.2085 106.018 15.3538C105.537 14.4992 105.297 13.531 105.297 12.4492C105.297 11.3809 105.537 10.4194 106.018 9.56468C106.499 8.71 107.16 8.04228 108.001 7.56152C108.842 7.0674 109.804 6.82035 110.886 6.82035C111.62 6.82035 112.308 6.95389 112.949 7.22098C113.59 7.47471 114.144 7.82861 114.612 8.28266C115.092 8.73671 115.446 9.26421 115.673 9.86516L113.69 10.7866C113.463 10.2257 113.096 9.77836 112.588 9.44449C112.094 9.09728 111.527 8.92367 110.886 8.92367C110.271 8.92367 109.717 9.07725 109.223 9.3844C108.742 9.6782 108.362 10.0989 108.081 10.6464C107.801 11.1806 107.661 11.7882 107.661 12.4693C107.661 13.1504 107.801 13.7647 108.081 14.3122C108.362 14.8464 108.742 15.267 109.223 15.5742C109.717 15.8813 110.271 16.0349 110.886 16.0349C111.54 16.0349 112.108 15.868 112.588 15.5341C113.082 15.1869 113.45 14.7262 113.69 14.1519L115.673 15.0934C115.46 15.6677 115.112 16.1885 114.632 16.6559C114.164 17.1099 113.61 17.4705 112.969 17.7376C112.328 18.0047 111.633 18.1382 110.886 18.1382Z" fill="white"/>
<path d="M117.886 17.8979V2.73389H120.149V12.8899L119.268 12.6696L124.696 7.06073H127.521L123.434 11.4076L127.701 17.8979H125.097L121.291 12.1488L122.633 11.9685L119.428 15.3739L120.149 13.8715V17.8979H117.886Z" fill="white"/>
<path d="M129.592 13.4709V11.4677H137.604V13.4709H129.592Z" fill="white"/>
<path d="M144.463 18.1382C143.649 18.1382 142.934 17.958 142.32 17.5974C141.706 17.2235 141.225 16.7093 140.878 16.0549C140.544 15.3872 140.377 14.6193 140.377 13.7513V7.06073H142.64V13.551C142.64 14.0451 142.741 14.4791 142.941 14.853C143.141 15.227 143.422 15.5208 143.782 15.7344C144.143 15.9348 144.557 16.0349 145.024 16.0349C145.505 16.0349 145.926 15.9281 146.286 15.7144C146.647 15.5007 146.927 15.2003 147.128 14.813C147.341 14.4257 147.448 13.9717 147.448 13.4508V7.06073H149.692V17.8979H147.548V15.7745L147.789 16.0549C147.535 16.7227 147.114 17.2368 146.527 17.5974C145.939 17.958 145.251 18.1382 144.463 18.1382Z" fill="white"/>
<path d="M152.335 17.8979V7.06073H154.598V17.8979H152.335ZM152.335 5.57838V2.97427H154.598V5.57838H152.335Z" fill="white"/>
<rect x="164.614" y="2.35889" width="33.3861" height="18.6521" rx="9.32603" fill="white"/>
<path d="M172.961 17.6724V9.12917H174.142V10.1364H174.243C174.313 10.007 174.414 9.85728 174.547 9.68739C174.679 9.5175 174.862 9.36918 175.097 9.24243C175.331 9.11299 175.641 9.04827 176.027 9.04827C176.529 9.04827 176.976 9.17501 177.37 9.42851C177.764 9.682 178.073 10.0474 178.296 10.5247C178.523 11.002 178.636 11.5764 178.636 12.2479C178.636 12.9194 178.524 13.4952 178.3 13.9752C178.077 14.4525 177.769 14.8206 177.378 15.0795C176.987 15.3357 176.541 15.4638 176.039 15.4638C175.662 15.4638 175.353 15.4004 175.113 15.2736C174.876 15.1469 174.69 14.9986 174.555 14.8287C174.42 14.6588 174.316 14.5078 174.243 14.3756H174.17V17.6724H172.961ZM174.146 12.2358C174.146 12.6727 174.21 13.0556 174.336 13.3846C174.463 13.7136 174.646 13.9711 174.886 14.1572C175.126 14.3406 175.42 14.4323 175.768 14.4323C176.13 14.4323 176.432 14.3365 176.674 14.1451C176.917 13.9509 177.1 13.688 177.224 13.3563C177.351 13.0246 177.415 12.6511 177.415 12.2358C177.415 11.8259 177.353 11.4578 177.229 11.1315C177.107 10.8052 176.924 10.5476 176.678 10.3589C176.436 10.1701 176.132 10.0757 175.768 10.0757C175.418 10.0757 175.121 10.1661 174.878 10.3467C174.638 10.5274 174.456 10.7796 174.332 11.1032C174.208 11.4268 174.146 11.8043 174.146 12.2358Z" fill="#171717"/>
<path d="M179.991 15.3424V12.2358V9.12917H181.16V10.1162H181.225C181.338 9.78177 181.538 9.51884 181.824 9.32738C182.112 9.13321 182.439 9.03613 182.803 9.03613C182.878 9.03613 182.967 9.03883 183.07 9.04422C183.175 9.04962 183.257 9.05636 183.316 9.06445V10.2213C183.268 10.2079 183.182 10.193 183.057 10.1768C182.933 10.158 182.809 10.1485 182.685 10.1485C182.399 10.1485 182.145 10.2092 181.921 10.3306C181.7 10.4492 181.524 10.6151 181.395 10.8281C181.265 11.0384 181.201 11.2785 181.201 11.5481V15.3424H179.991Z" fill="#171717"/>
<path d="M186.758 15.4678C186.175 15.4678 185.667 15.3343 185.233 15.0673C184.799 14.8004 184.461 14.4269 184.221 13.9469C183.981 13.4668 183.861 12.9059 183.861 12.2641C183.861 11.6196 183.981 11.056 184.221 10.5733C184.461 10.0905 184.799 9.71571 185.233 9.44873C185.667 9.18176 186.175 9.04827 186.758 9.04827C187.34 9.04827 187.849 9.18176 188.283 9.44873C188.717 9.71571 189.054 10.0905 189.294 10.5733C189.534 11.056 189.654 11.6196 189.654 12.2641C189.654 12.9059 189.534 13.4668 189.294 13.9469C189.054 14.4269 188.717 14.8004 188.283 15.0673C187.849 15.3343 187.34 15.4678 186.758 15.4678ZM186.762 14.4525C187.139 14.4525 187.452 14.3527 187.7 14.1531C187.948 13.9536 188.132 13.688 188.25 13.3563C188.372 13.0246 188.432 12.6592 188.432 12.2601C188.432 11.8636 188.372 11.4996 188.25 11.1679C188.132 10.8335 187.948 10.5652 187.7 10.3629C187.452 10.1607 187.139 10.0595 186.762 10.0595C186.382 10.0595 186.066 10.1607 185.815 10.3629C185.567 10.5652 185.382 10.8335 185.261 11.1679C185.142 11.4996 185.083 11.8636 185.083 12.2601C185.083 12.6592 185.142 13.0246 185.261 13.3563C185.382 13.688 185.567 13.9536 185.815 14.1531C186.066 14.3527 186.382 14.4525 186.762 14.4525Z" fill="#171717"/>
<defs>
<linearGradient id="paint0_linear_10711_71959" x1="11.6851" y1="0" x2="26.6009" y2="24.745" gradientUnits="userSpaceOnUse">
<stop stop-color="#5695DB"/>
<stop offset="1" stop-color="#4A25CF"/>
</linearGradient>
</defs>
</svg>
